<?xml version="1.0" encoding="utf-8"?>
<!-- Generator: Adobe Illustrator 24.1.1, SVG Export Plug-In . SVG Version: 6.00 Build 0)  -->
<svg version="1.1" id="Layer_1" focusable="false" xmlns="http://www.w3.org/2000/svg" xmlns:xlink="http://www.w3.org/1999/xlink"
	 x="0px" y="0px" viewBox="0 0 496 512" style="enable-background:new 0 0 496 512;" xml:space="preserve">
<style type="text/css">
	.st0{fill:#91DB3B;}
</style>
<path class="st0" d="M248,8C111,8,0,119,0,256s111,248,248,248s248-111,248-248S385,8,248,8z M248,440c-101.7,0-184-82.3-184-184
	c0-101.7,82.3-184,184-184c101.7,0,184,82.3,184,184C432,357.7,349.7,440,248,440z M248,128c-70.7,0-128,57.3-128,128
	s57.3,128,128,128s128-57.3,128-128S318.7,128,248,128z M248,320c-35.3,0-64-28.7-64-64s28.7-64,64-64s64,28.7,64,64
	S283.3,320,248,320z"/>
</svg>
